<?xml version="1.0" encoding="UTF-8" standalone="no"?>
<svg width="395px" height="22px" viewBox="0 0 395 22" version="1.1" xmlns="http://www.w3.org/2000/svg" xmlns:xlink="http://www.w3.org/1999/xlink">
    <!-- Generator: Sketch 39.1 (31720) - http://www.bohemiancoding.com/sketch -->
    <title>Page 1</title>
    <desc>Created with Sketch.</desc>
    <defs></defs>
    <g id="Page-1" stroke="none" stroke-width="1" fill="none" fill-rule="evenodd">
        <g id="Flow" transform="translate(-519.000000, -13544.000000)" stroke="#FF931E" stroke-width="3">
            <path d="M519.7585,13545.7966 C541.655101,13545.7966 541.655101,13564 563.551701,13564 C585.451783,13564 585.451783,13545.7966 607.351865,13545.7966 C629.250206,13545.7966 629.250206,13564 651.150288,13564 C673.05385,13564 673.05385,13545.7966 694.955672,13545.7966 C716.859235,13545.7966 716.859235,13564 738.761057,13564 C760.664619,13564 760.664619,13545.7966 782.566442,13545.7966 C804.470004,13545.7966 804.470004,13564 826.373567,13564 C848.28061,13564 848.28061,13545.7966 870.185913,13545.7966 C892.092957,13545.7966 892.092957,13564 914,13564" id="Page-1"></path>
        </g>
    </g>
</svg>