<?xml version="1.0" encoding="UTF-8" standalone="no"?>
<svg width="233px" height="21px" viewBox="0 0 233 21" version="1.1" xmlns="http://www.w3.org/2000/svg" xmlns:xlink="http://www.w3.org/1999/xlink">
    <!-- Generator: Sketch 39.1 (31720) - http://www.bohemiancoding.com/sketch -->
    <title>Group 13</title>
    <desc>Created with Sketch.</desc>
    <defs></defs>
    <g id="Page-1" stroke="none" stroke-width="1" fill="none" fill-rule="evenodd" stroke-linecap="square">
        <g id="Flow" transform="translate(-255.000000, -1175.000000)" stroke="#BD0FE1" stroke-width="3">
            <g id="Group-13" transform="translate(257.000000, 1177.000000)">
                <path d="M0.326198027,16.6458333 L15.0087328,0.704398644" id="Line"></path>
                <path d="M113.326198,16.6458333 L128.008733,0.704398644" id="Line-Copy-19"></path>
                <path d="M57.326198,16.6458333 L72.0087328,0.704398644" id="Line-Copy-15"></path>
                <path d="M170.326198,16.6458333 L185.008733,0.704398644" id="Line-Copy-20"></path>
                <path d="M29.326198,16.6458333 L44.0087328,0.704398644" id="Line-Copy-13"></path>
                <path d="M141.326198,16.6458333 L156.008733,0.704398644" id="Line-Copy-21"></path>
                <path d="M85.326198,16.6458333 L100.008733,0.704398644" id="Line-Copy-16"></path>
                <path d="M198.326198,16.6458333 L213.008733,0.704398644" id="Line-Copy-22"></path>
                <path d="M14.326198,16.6458333 L29.0087328,0.704398644" id="Line-Copy-12"></path>
                <path d="M127.326198,16.6458333 L142.008733,0.704398644" id="Line-Copy-23"></path>
                <path d="M71.326198,16.6458333 L86.0087328,0.704398644" id="Line-Copy-17"></path>
                <path d="M184.326198,16.6458333 L199.008733,0.704398644" id="Line-Copy-24"></path>
                <path d="M43.326198,16.6458333 L58.0087328,0.704398644" id="Line-Copy-14"></path>
                <path d="M156.326198,16.6458333 L171.008733,0.704398644" id="Line-Copy-25"></path>
                <path d="M99.326198,16.6458333 L114.008733,0.704398644" id="Line-Copy-18"></path>
                <path d="M213.326198,16.6458333 L228.008733,0.704398644" id="Line-Copy-26"></path>
            </g>
        </g>
    </g>
</svg>