<?xml version="1.0" encoding="UTF-8" standalone="no"?>
<svg width="194px" height="43px" viewBox="0 0 194 43" version="1.1" xmlns="http://www.w3.org/2000/svg" xmlns:xlink="http://www.w3.org/1999/xlink">
    <!-- Generator: Sketch 39.1 (31720) - http://www.bohemiancoding.com/sketch -->
    <title>Page 1</title>
    <desc>Created with Sketch.</desc>
    <defs>
        <polygon id="path-1" points="194 21.2120103 194 0 0 0 0 21.2120103 0 42.4240206 194 42.4240206 194 21.2120103"></polygon>
    </defs>
    <g id="Page-1" stroke="none" stroke-width="1" fill="none" fill-rule="evenodd">
        <g id="Flow" transform="translate(-193.000000, -412.000000)">
            <g id="Page-1" transform="translate(193.000000, 412.000000)">
                <path d="M156.820987,16.2740698 C156.212422,15.6689266 155.338215,15.366355 154.198364,15.366355 C153.058111,15.366355 152.184306,15.6689266 151.575742,16.2740698 C150.967178,16.879213 150.614597,17.6908733 150.517999,18.7090507 C150.460041,19.3430103 150.431061,20.1402625 150.431061,21.1008072 C150.431061,22.0421411 150.460041,22.8586041 150.517999,23.5501964 C150.614597,24.5687741 150.967178,25.3800342 151.575742,25.9851774 C152.184306,26.5899203 153.058111,26.8928922 154.198364,26.8928922 C155.338215,26.8928922 156.212422,26.5899203 156.820987,25.9851774 C157.429551,25.3800342 157.782132,24.5687741 157.878729,23.5501964 C157.936688,22.8586041 157.965667,22.0421411 157.965667,21.1008072 C157.965667,20.1402625 157.936688,19.3430103 157.878729,18.7090507 C157.782132,17.6908733 157.429551,16.879213 156.820987,16.2740698" id="Fill-1" fill="#000000"></path>
                <g id="Group-5">
                    <mask id="mask-2" fill="white">
                        <use xlink:href="#path-1"></use>
                    </mask>
                    <g id="Clip-4"></g>
                    <path d="M181.522822,14.8763971 C181.522822,15.0881172 181.403282,15.2474075 181.248726,15.4010947 C181.09417,15.555182 180.868776,15.6088125 180.656261,15.6088125 L171.863071,15.6088125 L171.863071,19.6110823 L180.076676,19.6110823 C180.289191,19.6110823 180.401888,19.6835234 180.556444,19.8372106 C180.711,19.991298 180.717842,20.169399 180.717842,20.3803186 L180.717842,23.434851 C180.717842,23.646571 180.711,23.7290178 180.556444,23.882705 C180.401888,24.0367924 180.289191,24.0135792 180.076676,24.0135792 L171.863071,24.0135792 L171.863071,30.4372223 C171.863071,30.6489424 171.849788,30.8322464 171.695635,30.9859335 C171.540676,31.1400209 171.421539,31.217665 171.209025,31.217665 L167.412743,31.217665 C167.199826,31.217665 167.016693,31.1400209 166.862539,30.9859335 C166.707581,30.8322464 166.630705,30.6489424 166.630705,30.4372223 L166.630705,11.8218647 C166.630705,11.6109451 166.707581,11.5096877 166.862539,11.3556003 C167.016693,11.2023133 167.199826,11.2063156 167.412743,11.2063156 L180.656261,11.2063156 C180.868776,11.2063156 181.09417,11.2023133 181.248726,11.3556003 C181.403282,11.5096877 181.522822,11.6109451 181.522822,11.8218647 L181.522822,14.8763971 Z M163.240133,23.6941981 C163.162452,25.1546263 162.761975,26.4745749 162.037494,27.6564452 C161.313012,28.8379153 160.283846,29.7744464 158.950801,30.4660387 C157.618158,31.1576309 156.033556,31.503427 154.198606,31.503427 C152.362851,31.503427 150.779054,31.1576309 149.446008,30.4660387 C148.112963,29.7744464 147.084199,28.8379153 146.359718,27.6564452 C145.634834,26.4745749 145.233954,25.1546263 145.156676,23.6941981 C145.118037,22.6568097 145.09912,21.8115303 145.09912,21.1583599 C145.09912,20.5051894 145.118037,19.6406991 145.156676,18.564889 C145.233954,17.1052612 145.634834,15.7841119 146.359718,14.6026418 C147.084199,13.4211718 148.112963,12.4846406 149.446008,11.7930484 C150.779054,11.1014561 152.362851,10.75566 154.198606,10.75566 C156.033556,10.75566 157.618158,11.1014561 158.950801,11.7930484 C160.283846,12.4846406 161.313012,13.4211718 162.037494,14.6026418 C162.761975,15.7841119 163.162452,17.1052612 163.240133,18.564889 C163.278369,19.1031943 163.298091,19.9676846 163.298091,21.1583599 C163.298091,22.3302245 163.278369,23.1755039 163.240133,23.6941981 L163.240133,23.6941981 Z M136.443983,30.4372223 C136.443983,30.6489424 136.318407,30.8322464 136.163851,30.9859335 C136.009295,31.1400209 135.777863,31.217665 135.565349,31.217665 L121.829183,31.217665 C121.616266,31.217665 121.484249,31.1400209 121.330095,30.9859335 C121.175137,30.8322464 121.149378,30.6489424 121.149378,30.4372223 L121.149378,11.8218647 C121.149378,11.6109451 121.175137,11.5096877 121.330095,11.3556003 C121.484249,11.2023133 121.616266,11.2063156 121.829183,11.2063156 L135.333515,11.2063156 C135.546029,11.2063156 135.692133,11.2023133 135.846689,11.3556003 C136.001245,11.5096877 136.041494,11.6109451 136.041494,11.8218647 L136.041494,14.8763971 C136.041494,15.0881172 136.001245,15.2474075 135.846689,15.4010947 C135.692133,15.555182 135.546029,15.6088125 135.333515,15.6088125 L126.381743,15.6088125 L126.381743,18.8106284 L134.695971,18.8106284 C134.908485,18.8106284 135.172116,18.8654595 135.326672,19.0191466 C135.481228,19.173234 135.639004,19.333725 135.639004,19.5446447 L135.639004,22.599177 C135.639004,22.8108971 135.481228,22.9109538 135.326672,23.064641 C135.172116,23.2187284 134.908485,23.2131252 134.695971,23.2131252 L126.381743,23.2131252 L126.381743,26.4149411 L135.565349,26.4149411 C135.777863,26.4149411 136.009295,26.5866385 136.163851,26.7403256 C136.318407,26.894413 136.443983,27.1717703 136.443983,27.38269 L136.443983,30.4372223 Z M117.929461,14.8763971 C117.929461,15.0881172 117.875124,15.2474075 117.720568,15.4010947 C117.56561,15.555182 117.405017,15.6088125 117.192905,15.6088125 L108.672199,15.6088125 L108.672199,19.6110823 L116.61332,19.6110823 C116.825432,19.6110823 117.074573,19.6835234 117.229531,19.8372106 C117.384087,19.991298 117.526971,20.169399 117.526971,20.3803186 L117.526971,23.434851 C117.526971,23.646571 117.384087,23.7290178 117.229531,23.882705 C117.074573,24.0367924 116.825432,24.0135792 116.61332,24.0135792 L108.672199,24.0135792 L108.672199,30.4372223 C108.672199,30.6489424 108.522473,30.8322464 108.36832,30.9859335 C108.213361,31.1400209 107.958183,31.217665 107.745668,31.217665 L103.949386,31.217665 C103.736469,31.217665 103.488133,31.1400209 103.333979,30.9859335 C103.179021,30.8322464 103.037344,30.6489424 103.037344,30.4372223 L103.037344,11.8218647 C103.037344,11.6109451 103.179021,11.5096877 103.333979,11.3556003 C103.488133,11.2023133 103.736469,11.2063156 103.949386,11.2063156 L117.192905,11.2063156 C117.405017,11.2063156 117.56561,11.2023133 117.720568,11.3556003 C117.875124,11.5096877 117.929461,11.6109451 117.929461,11.8218647 L117.929461,14.8763971 Z M99.0124481,30.4372223 C99.0124481,30.6489424 98.9838714,30.8322464 98.8293154,30.9859335 C98.6747593,31.1400209 98.5399253,31.217665 98.3274108,31.217665 L94.5311286,31.217665 C94.3182116,31.217665 94.1507759,31.1400209 93.9962199,30.9859335 C93.8416639,30.8322464 93.780083,30.6489424 93.780083,30.4372223 L93.780083,11.8218647 C93.780083,11.6109451 93.8416639,11.5096877 93.9962199,11.3556003 C94.1507759,11.2023133 94.3182116,11.2063156 94.5311286,11.2063156 L98.3274108,11.2063156 C98.5399253,11.2063156 98.6747593,11.2023133 98.8293154,11.3556003 C98.9838714,11.5096877 99.0124481,11.6109451 99.0124481,11.8218647 L99.0124481,30.4372223 Z M91.3651452,30.4372223 C91.3651452,30.6489424 91.2335311,30.8322464 91.0789751,30.9859335 C90.9240166,31.1400209 90.6865477,31.217665 90.4740332,31.217665 L77.056639,31.217665 C76.843722,31.217665 76.7600041,31.1400209 76.6054481,30.9859335 C76.4508921,30.8322464 76.473029,30.6489424 76.473029,30.4372223 L76.473029,11.8218647 C76.473029,11.6109451 76.4508921,11.5096877 76.6054481,11.3556003 C76.7600041,11.2023133 76.843722,11.2063156 77.056639,11.2063156 L80.8529212,11.2063156 C81.0654357,11.2063156 81.2839876,11.2023133 81.4385436,11.3556003 C81.5930996,11.5096877 81.7053942,11.6109451 81.7053942,11.8218647 L81.7053942,26.4149411 L90.4740332,26.4149411 C90.6865477,26.4149411 90.9240166,26.5866385 91.0789751,26.7403256 C91.2335311,26.894413 91.3651452,27.1717703 91.3651452,27.38269 L91.3651452,30.4372223 Z M66.813278,30.4372223 C66.813278,30.6489424 66.7287552,30.8322464 66.5741992,30.9859335 C66.4192407,31.1400209 66.2284606,31.217665 66.0163485,31.217665 L52.2801826,31.217665 C52.0672656,31.217665 51.894195,31.1400209 51.7400415,30.9859335 C51.585083,30.8322464 51.5186722,30.6489424 51.5186722,30.4372223 L51.5186722,11.8218647 C51.5186722,11.6109451 51.585083,11.5096877 51.7400415,11.3556003 C51.894195,11.2023133 52.0672656,11.2063156 52.2801826,11.2063156 L65.7845145,11.2063156 C65.9966266,11.2063156 66.1020788,11.2023133 66.2570373,11.3556003 C66.4111909,11.5096877 66.4107884,11.6109451 66.4107884,11.8218647 L66.4107884,14.8763971 C66.4107884,15.0881172 66.4111909,15.2474075 66.2570373,15.4010947 C66.1020788,15.555182 65.9966266,15.6088125 65.7845145,15.6088125 L56.7510373,15.6088125 L56.7510373,18.8106284 L65.146971,18.8106284 C65.359083,18.8106284 65.5820622,18.8654595 65.7370207,19.0191466 C65.8911743,19.173234 66.0082988,19.333725 66.0082988,19.5446447 L66.0082988,22.599177 C66.0082988,22.8108971 65.8911743,22.9109538 65.7370207,23.064641 C65.5820622,23.2187284 65.359083,23.2131252 65.146971,23.2131252 L56.7510373,23.2131252 L56.7510373,26.4149411 L66.0163485,26.4149411 C66.2284606,26.4149411 66.4192407,26.5866385 66.5741992,26.7403256 C66.7287552,26.894413 66.813278,27.1717703 66.813278,27.38269 L66.813278,30.4372223 Z M47.4937759,30.4372223 C47.4937759,30.6489424 47.3899336,30.8322464 47.2353776,30.9859335 C47.0804191,31.1400209 46.870722,31.217665 46.6582075,31.217665 L42.8619253,31.217665 C42.6490083,31.217665 42.5568382,31.1400209 42.4022822,30.9859335 C42.2473237,30.8322464 42.2614108,30.6489424 42.2614108,30.4372223 L42.2614108,23.2131252 L35.8215768,23.2131252 L35.8215768,30.4372223 C35.8215768,30.6489424 35.656556,30.8322464 35.502,30.9859335 C35.347444,31.1400209 35.076166,31.217665 34.8636515,31.217665 L31.0673693,31.217665 C30.8544523,31.217665 30.6222158,31.1440232 30.4676598,31.0003417 C30.3127012,30.85626 30.186722,30.6677531 30.186722,30.4372223 L30.186722,11.8218647 C30.186722,11.6109451 30.3127012,11.5096877 30.4676598,11.3556003 C30.6222158,11.2023133 30.8544523,11.2063156 31.0673693,11.2063156 L34.8636515,11.2063156 C35.076166,11.2063156 35.347444,11.2023133 35.502,11.3556003 C35.656556,11.5096877 35.8215768,11.6109451 35.8215768,11.8218647 L35.8215768,18.8106284 L42.2614108,18.8106284 L42.2614108,11.8218647 C42.2614108,11.6109451 42.2473237,11.5096877 42.4022822,11.3556003 C42.5568382,11.2023133 42.6490083,11.2063156 42.8619253,11.2063156 L46.6582075,11.2063156 C46.870722,11.2063156 47.0804191,11.2023133 47.2353776,11.3556003 C47.3899336,11.5096877 47.4937759,11.6109451 47.4937759,11.8218647 L47.4937759,30.4372223 Z M27.7717842,14.8763971 C27.7717842,15.0881172 27.6470124,15.2474075 27.4924564,15.4010947 C27.3374979,15.555182 27.1068714,15.6088125 26.8943568,15.6088125 L21.7344398,15.6088125 L21.7344398,30.4372223 C21.7344398,30.6489424 21.6869461,30.8322464 21.53239,30.9859335 C21.3774315,31.1400209 21.224083,31.217665 21.011971,31.217665 L17.2152863,31.217665 C17.0027718,31.217665 16.8538506,31.1400209 16.6992946,30.9859335 C16.5443361,30.8322464 16.5020747,30.6489424 16.5020747,30.4372223 L16.5020747,15.6088125 L11.3324979,15.6088125 C11.1199834,15.6088125 10.8937842,15.555182 10.7392282,15.4010947 C10.5846722,15.2474075 10.4647303,15.0881172 10.4647303,14.8763971 L10.4647303,11.8218647 C10.4647303,11.6109451 10.5846722,11.5096877 10.7392282,11.3556003 C10.8937842,11.2023133 11.1199834,11.2063156 11.3324979,11.2063156 L26.8943568,11.2063156 C27.1068714,11.2063156 27.3374979,11.2023133 27.4924564,11.3556003 C27.6470124,11.5096877 27.7717842,11.6109451 27.7717842,11.8218647 L27.7717842,14.8763971 Z M0,42.4240206 L194,42.4240206 L194,-4.00226987e-05 L0,-4.00226987e-05 L0,42.4240206 Z" id="Fill-3" fill="#000000" mask="url(#mask-2)"></path>
                </g>
            </g>
        </g>
    </g>
</svg>